<svg xmlns="http://www.w3.org/2000/svg" width="24" height="24" viewBox="0 -.343 292.535 283.336" fill="currentColor" role="img">
  <path d="m44.4 282.9c24.5 0 44.4-19.9 44.4-44.5 0-24.4-13.2-36.4-31.2-42.1v-39.9h46.9c5.6 18 22.2 31.2 42.1 31.2s36.5-13.2 42.3-31.2h59.2c7.3 0 13.2-5.9 13.2-13.2v-56.9c18-5.7 31.2-22.3 31.2-42.2 0-24.5-19.9-44.4-44.5-44.4-24.4 0-44.3 19.9-44.3 44.4 0 19.9 13.2 36.5 31.2 42.2v43.7h-46c-5.7-18-22.3-31.2-42.3-31.2-19.8 0-36.4 13.2-42.1 31.2h-60c-7.3 0-13.2 5.9-13.2 13.2v53.1c-18.1 5.6-31.3 22.3-31.3 42.1 0 24.5 19.9 44.4 44.4 44.5zm203.6-220.9c-9.9 0-18-8.1-18-17.9 0-10 8.1-18.1 18-18.1s18 8.1 18 18.1c0 9.8-8.1 17.9-18 17.9zm-101.4 99.1c-9.9 0-18-8.1-18-18s8.1-18 18-18 18 8.1 18 18-8.1 18-18 18zm-102.2 95.3c-9.9 0-18-8.1-18-18s8.1-18 18-18 18 8.1 18 18-8.1 18-18 18z"/>
</svg>
